<?xml version="1.0" encoding="utf-8"?>
<!DOCTYPE svg PUBLIC "-//W3C//DTD SVG 20010904//EN" "http://www.w3.org/TR/2001/REC-SVG-20010904/DTD/svg10.dtd">
<svg version="1.0" xmlns="http://www.w3.org/2000/svg" width="1389px" height="717px" viewBox="0 0 1389 717" preserveAspectRatio="xMidYMid meet">
 <g fill="#000000">
  <path d="M50 653 c-15.1 -0.4 -28.3 -1 -29.3 -1.5 -1 -0.4 -2.2 -1.6 -2.7 -2.6 -1.5 -2.8 -1.2 -11.2 0.5 -13.6 3.5 -5 -8.6 -4.7 241.5 -5.7 83.9 -0.4 155.3 -0.9 158.7 -1.2 l6.1 -0.5 -20.6 -20.7 c-22.8 -22.8 -30.5 -32.5 -38.3 -48.7 -6.6 -13.7 -8.2 -21.2 -7.7 -37.7 0.3 -12.6 0.5 -13.7 3.5 -20.2 4.8 -9.9 12.9 -17.4 25.7 -23.6 17.7 -8.6 21.6 -9.3 55.7 -9.8 l29.6 -0.4 0.7 -19.1 c2.3 -67.2 12.5 -119.5 32.6 -167.3 l4.3 -10.2 -3.4 -4.8 c-1.9 -2.7 -6.3 -10.6 -9.9 -17.7 l-6.6 -12.7 -3.4 4.6 c-3.9 5.1 -9.8 9.7 -18 14 -4.9 2.6 -6.5 2.9 -15 2.9 -8.4 0 -10.2 -0.3 -15.2 -2.8 -12.5 -6.1 -18.8 -21.5 -18.8 -45.9 0 -19 3.5 -33.4 12.6 -50.8 11.4 -21.8 22.3 -30.7 41.9 -33.9 l7 -1.2 10.4 -13.9 c14.8 -19.9 24.1 -27.9 44.4 -38.6 19 -9.9 30.9 -12.7 58.2 -13.9 31.6 -1.4 55.3 4.2 79 18.5 10.2 6.2 21.2 14.9 25 19.8 6.3 8.1 18.5 24.3 19.3 25.8 0.5 0.9 4.4 2.2 10 3.3 20 4.2 30.9 13.6 42.4 36.6 8.9 17.7 11.1 27.4 11.2 48 0 17.1 -1.3 24.1 -6.8 34 -8.2 15.1 -25.7 19.6 -43.8 11.2 -6 -2.7 -8.6 -4.8 -13.7 -10.4 l-6.3 -7.1 -5.9 11.3 c-3.2 6.3 -7.6 14.3 -9.9 17.8 l-4 6.5 3.4 7.9 c19.3 45.1 29.6 92.4 32.7 149.3 0.5 10.7 1.3 22.9 1.6 27 l0.5 7.4 3.9 -4.4 c9.2 -10.5 14.8 -20.1 19.8 -34.3 3.5 -9.9 3.8 -15.6 2.1 -40.7 -1.1 -17.4 -0.1 -25.6 4.9 -37.8 l3.8 -9.7 -2.5 -5.5 c-11.3 -25.1 -12.9 -31.4 -14.8 -59.6 l-0.6 -10 3.3 0.3 c30.5 2.5 43.1 6.6 60.4 19.2 3.8 2.8 7.5 5.1 8.2 5.1 0.7 0 3.4 -0.8 6 -1.9 13.3 -5.2 35.1 -7.7 52.2 -6.1 9.9 1 12.7 0.9 19.6 -0.5 10.8 -2.3 21.2 -5.6 39.5 -12.7 18.5 -7.3 26.6 -8.5 31.3 -4.8 5.3 4.2 6.2 7.3 6.1 21 -0.1 26.2 -6.4 43.3 -23.9 64.9 l-7 8.6 -1.1 26.1 -1 26.1 -3.7 7.4 c-1.9 4.1 -4.6 9.1 -5.8 11.1 l-2.2 3.7 8 10.8 c10.5 14.2 11.3 15.5 17.1 25.4 18.3 31.8 30.7 72.5 34.3 113.3 0.6 6.7 1.4 12.9 1.7 13.8 0.6 1.5 2.5 1 16.3 -4.6 19.1 -7.7 33.8 -15.3 54.7 -28.4 19.9 -12.5 28.4 -16.8 38 -19.3 12.8 -3.2 23.1 -2.2 28.2 3 2 2 3 4.4 3.9 9.4 2 11.8 -0.2 17.7 -10.7 28.8 -3.7 4 -10.1 9.9 -14.2 13.3 -9.7 7.9 -32.1 22.8 -43.8 29.1 l-9.4 5 4.4 0.7 c2.4 0.3 29.1 0.7 59.3 0.7 30.3 0.1 99.2 0.4 153.3 0.8 l98.2 0.6 0 6.9 c0 8.8 -1.7 12.3 -6.8 13.8 -2.2 0.6 -26.8 1.5 -61.2 2.1 -69.8 1.3 -312.6 0.6 -321.5 -1 -4.4 -0.7 -6.6 -1.7 -8.2 -3.6 -3.2 -3.7 -3.1 -9.4 0.3 -13.5 3.4 -4 5.6 -5.1 24.8 -12.2 45.8 -16.9 72.4 -31.1 93.6 -49.8 l3.5 -3 -5 2.9 c-2.7 1.5 -10.4 6.1 -17 10.1 -35 21.1 -80.1 39 -98.2 39 -6.3 0 -6.3 0 -6.3 -2.9 0 -1.6 -0.9 -5 -2 -7.5 -1.7 -4 -1.7 -4.6 -0.4 -4.6 1.4 0 1.5 -1.2 0.9 -9.2 -4.7 -65.3 -17.2 -101 -51 -145.9 -6.7 -8.9 -12 -17 -12.6 -19.1 -1.4 -5.4 0 -9.6 7.1 -21.3 9 -15.1 9.2 -15.7 8.8 -41.2 l-0.3 -21.8 2.7 -5 c1.4 -2.8 5.4 -8.9 8.9 -13.5 14.1 -19 18.7 -28 20.5 -39.8 l0.7 -4.4 -3.9 2 c-6.6 3.3 -27.1 10.1 -40.2 13.3 -12 2.9 -12.9 3 -21.8 2 -11.9 -1.4 -32.8 -1.4 -37.9 0 -2.2 0.6 -8 3.1 -12.9 5.5 -14 6.9 -17.5 6.2 -39.2 -7.9 -12.1 -7.9 -18.4 -11.1 -18.4 -9.6 0 0.6 2.9 8.8 6.4 18.3 10.5 28 10.3 24.9 3.1 46.3 -5.2 15.2 -5.5 19.9 -2.5 32.5 2.4 9.9 2.5 15.7 0.5 27.1 -4.6 26.7 -27.8 66.4 -43.1 73.7 -3.7 1.8 -7.2 2.4 -18.7 3 -7.8 0.4 -14.5 0.5 -14.9 0.3 -0.5 -0.2 -0.8 -10.9 -0.8 -23.6 0 -45.3 -4.5 -85.5 -13.6 -122.7 -4.8 -19.7 -10.1 -35 -18.5 -54.2 -3.9 -8.8 -7.3 -17.7 -7.6 -19.8 -0.6 -4.6 1.4 -9.4 10.3 -24.1 8.3 -13.8 16.7 -31.5 18.7 -39.4 3.2 -12.5 5 -14.6 13.1 -15.3 8.1 -0.7 10.5 1.1 17.8 13.1 6.5 10.6 20.1 25.7 23.2 25.7 4.1 0 8.5 -9.1 10 -20.4 0.6 -4.8 -1.7 -18.6 -4.5 -26.9 -4.9 -14.1 -13.9 -28.7 -20.8 -33.7 -1.9 -1.3 -7.5 -3.1 -14.8 -4.6 -6.4 -1.3 -12.7 -3.1 -13.9 -3.9 -1.3 -0.8 -6.8 -7.5 -12.2 -14.8 -25.3 -34 -47.2 -46 -86.4 -47.4 -23.8 -0.9 -36.4 1.5 -53.3 9.9 -16.5 8.2 -27.3 17.8 -39.6 35 -8.1 11.3 -13.2 17.4 -16.1 18.9 -1 0.6 -5.9 1.7 -10.9 2.5 -5 0.8 -10.7 2.3 -12.7 3.3 -9.5 4.9 -21.4 23.3 -25.6 39.8 -2.7 10.2 -3.2 23.8 -1.2 30.7 1.6 5.5 6 11.6 8.4 11.6 2 0 9.8 -6.7 14.5 -12.5 2.6 -3.3 7.3 -10.1 10.4 -15.2 3.1 -5 6.7 -9.7 8.1 -10.4 5.5 -3 14.3 -0.5 17.6 5.1 0.9 1.6 3.2 7.4 5.2 13.1 4.4 12.6 8.8 21.5 19.3 38.8 4.5 7.4 8.4 14.6 8.8 16 0.9 3.6 -0.8 8.9 -7.7 24.5 -7.7 17.5 -12.1 29.5 -17 46.9 -9.7 34.1 -12.8 56.8 -15.5 113.3 -1.6 34.3 -1.9 36.5 -4.7 39.1 -1.9 1.7 -4.7 1.8 -37.7 1.8 l-35.6 0 -9.5 3.2 c-10.6 3.6 -16.9 7.2 -22.3 12.8 -4.8 4.9 -6.1 9.1 -5.5 18 0.4 6.2 1.2 8.9 5.6 17.9 11.7 23.7 36.4 50 71.1 75.5 16.2 11.8 18.8 14.6 19.6 21.1 0.4 3.1 0.5 6.9 0.3 8.5 l-0.3 3 -42.5 0.6 c-56.1 0.8 -350.9 0.7 -386 -0.1z"/>
  <path d="M689.2 609.8 c0.3 -29.6 0.4 -30.4 2.7 -34.8 4.5 -8.7 11.9 -14.1 21.3 -15.5 11 -1.7 23.6 6.2 27.8 17.3 10 26.4 -20.9 48.5 -42.5 30.4 l-3 -2.5 -0.3 17.7 -0.2 17.6 -3.1 0 -3 0 0.3 -30.2z m36.3 -4.3 c3.5 -1.4 8.1 -5.8 10.1 -9.6 5.2 -10.2 0.6 -22.8 -10.5 -28.4 -5.5 -2.8 -15.8 -1.8 -21.3 2.1 -6.7 4.7 -8.9 9.4 -8.6 18.1 0.3 6.3 0.7 7.6 3.4 11 6.9 8.4 16.9 11 26.9 6.8z"/>
  <path d="M714.2 588.7 c-2.4 -2.5 -2.9 -7.2 -0.9 -7.9 1 -0.4 5.5 -0.3 8 0.1 1.7 0.3 0.6 5.9 -1.6 7.9 -2.9 2.7 -2.9 2.7 -5.5 -0.1z"/>
  <path d="M745.2 609.3 c0.3 -29.5 0.4 -31 2.5 -34.9 4.5 -8.4 15.5 -15.4 24.3 -15.4 5 0 12.6 3 16.8 6.6 11.9 10.1 13.2 27.3 3.1 38.8 -9.7 11 -23.3 12.6 -35.8 4.2 -2.7 -1.9 -5.2 -3.1 -5.5 -2.8 -0.3 0.3 -0.6 8.1 -0.6 17.4 l0 16.8 -2.6 0 -2.5 0 0.3 -30.7z m31.6 -2.4 c5.8 -1.2 12.8 -6.6 14.8 -11.6 3.2 -7.6 1 -18.6 -4.8 -24 -5.7 -5.3 -16.7 -6.9 -24.3 -3.4 -8.9 4 -14 14.7 -11.5 24 1.7 6.4 8.2 12.9 14.5 14.6 6.3 1.7 5.5 1.7 11.3 0.4z"/>
  <path d="M770.3 588.8 c-3.1 -3.5 -3.5 -4.6 -2.3 -6.7 0.7 -1.4 1.9 -1.9 4.3 -1.8 4.1 0.3 5.7 1.3 5.7 3.6 0 1.5 -4.1 7.1 -5.3 7.1 -0.2 0 -1.3 -1 -2.4 -2.2z"/>
  <path d="M810 635.6 l0 -3.6 4.5 0 c10.9 0 20.9 -8.8 23 -20.3 0.4 -2 0.4 -3.7 0 -3.7 -0.3 0 -2.7 1.2 -5.3 2.7 -9.4 5.5 -21.2 2.7 -27.7 -6.5 l-3 -4.4 -0.3 -20.4 -0.3 -20.4 2.5 0 2.6 0 0 18.1 c0 20.2 0.7 23.1 6.4 27.2 2.4 1.7 4.5 2.2 9.6 2.2 7.7 0 10.9 -1.9 14 -8.1 1.8 -3.6 2 -6 2 -21.7 l0 -17.7 2.6 0 2.5 0 -0.3 28.8 -0.3 28.7 -2.7 5 c-5.1 9.7 -13.7 15.6 -24.5 17.1 l-5.3 0.7 0 -3.7z"/>
  <path d="M580.1 613.9 c-11.3 -2.2 -24.9 -11.8 -30.6 -21.6 -7 -11.9 -8.7 -26.8 -4.5 -39.3 8.7 -26 36.8 -39.3 61.1 -28.9 6.2 2.7 9.3 2.3 9.7 -1.3 0.3 -2.2 0.9 -2.8 2.8 -2.8 2.1 0 2.4 0.5 2.4 3.6 0 2.6 -0.8 4.3 -3 6.6 -3.5 3.5 -4.3 3.4 -16 -0.7 -25.4 -9.1 -52.2 8.6 -53.8 35.4 -1 17.3 8.1 32.7 23.6 39.9 5.1 2.4 6.9 2.7 16.7 2.7 9.8 0 11.6 -0.3 16.7 -2.7 3.1 -1.4 7.7 -4.5 10.2 -6.8 l4.5 -4.1 1.7 2.7 1.8 2.7 -4.5 3.8 c-10.6 9.3 -25.4 13.4 -38.8 10.8z"/>
  <path d="M625 567.5 l0 -47.5 2.5 0 2.5 0 0 21.3 c0 11.8 0.3 21.6 0.6 22 0.3 0.3 2.8 -0.6 5.6 -2 9.2 -4.6 19.7 -1.6 25.8 7.4 2.3 3.4 2.5 4.6 3 19.8 0.6 18 1.1 19.5 6.6 19.5 3.2 0 3.4 0.2 3.4 3.6 l0 3.7 -4.2 -0.6 c-2.8 -0.4 -5.1 -1.5 -7.2 -3.6 l-3.1 -3.1 -0.5 -16.4 c-0.5 -17.8 -1 -19.3 -7.2 -23.9 -3.5 -2.6 -12.1 -2.6 -15.6 0 -6.5 4.8 -6.7 5.6 -7 27.4 l-0.4 19.9 -2.4 0 -2.4 0 0 -47.5z"/>
  <path d="M680 587.5 l0 -27.5 2.5 0 2.5 0 0 27.5 0 27.5 -2.5 0 -2.5 0 0 -27.5z"/>
 </g>
</svg>